<?xml version="1.0" encoding="UTF-8"?><svg xmlns="http://www.w3.org/2000/svg" viewBox="0 0 76.1 12.68"><defs><style>.d{fill:#fff;}.e{fill:#ff39a8;}.f{fill:#2ff0cf;}</style></defs><g id="a"/><g id="b"><g id="c"><path class="f" d="M10.58,0V3.31h-3.64v7.27H3.64V3.31H0V0H10.58Z"/><path class="f" d="M21.5,0V6.94h-3.64v.33h3.64v3.31h-6.94v-3.64h-.33v3.64h-3.31V0h10.58Zm-3.31,3.31h-3.97v.33h3.97v-.33Z"/><path class="f" d="M32.42,0V10.58h-3.31v-3.64h-3.97v3.64h-3.31V0h10.58Zm-3.31,3.31h-3.97v.33h3.97v-.33Z"/><path class="e" d="M65.18,0V6.94h-3.64v.33h3.64v3.31h-6.94v-3.64h-.33v3.64h-3.31V0h10.58Zm-3.31,3.31h-3.97v.33h3.97v-.33Z"/><path class="e" d="M76.1,0V3.31h-7.27v.33h7.27v6.94h-10.58v-3.31h7.27v-.33h-7.27V0h10.58Z"/><path class="f" d="M40.28,10.12c0-1.72,1.35-3.11,3.05-3.21V0h-10.58V3.31h7.27v3.97h-3.97V3.64h-3.31v6.94h7.57c-.02-.15-.05-.3-.05-.46Z"/><path class="e" d="M54.26,3.31V0h-10.58V6.91c1.7,.09,3.05,1.48,3.05,3.21,0,.16-.02,.31-.05,.46h7.57v-3.31h-7.27v-.33h7.27V3.64h-7.27v-.33h7.27Z"/><circle class="d" cx="43.51" cy="10.12" r="2.56"/></g></g></svg>